<svg width="83" height="83" viewBox="0 0 83 83" fill="none" xmlns="http://www.w3.org/2000/svg">
<path d="M41.5 0L77.4401 20.75V62.25L41.5 83L5.55994 62.25V20.75L41.5 0Z" fill="#0A0A0A"/>
<g clip-path="url(#clip0_2_63)">
<path d="M41.085 46.4896C44.0676 46.4896 46.4854 44.0699 46.4854 41.085C46.4854 38.1001 44.0676 35.6804 41.085 35.6804C38.1024 35.6804 35.6846 38.1001 35.6846 41.085C35.6846 44.0699 38.1024 46.4896 41.085 46.4896Z" fill="#61DAFB"/>
<path d="M41.085 52.1579C57.089 52.1579 70.0628 47.2004 70.0628 41.085C70.0628 34.9696 57.089 30.0121 41.085 30.0121C25.081 30.0121 12.1072 34.9696 12.1072 41.085C12.1072 47.2004 25.081 52.1579 41.085 52.1579Z" stroke="#61DAFB" stroke-width="2"/>
<path d="M31.5031 46.6214C39.5051 60.4921 50.2819 69.2578 55.5739 66.2001C60.8659 63.1424 58.6689 49.4192 50.6669 35.5485C42.6649 21.6778 31.888 12.9122 26.5961 15.9699C21.3041 19.0276 23.5011 32.7507 31.5031 46.6214Z" stroke="#61DAFB" stroke-width="2"/>
<path d="M31.5031 35.5486C23.5011 49.4193 21.3041 63.1424 26.5961 66.2001C31.888 69.2578 42.6649 60.4921 50.6669 46.6214C58.6689 32.7507 60.8659 19.0276 55.5739 15.9699C50.282 12.9122 39.5051 21.6779 31.5031 35.5486Z" stroke="#61DAFB" stroke-width="2"/>
</g>
<defs>
<clipPath id="clip0_2_63">
<rect width="60.59" height="53.95" fill="white" transform="translate(10.79 14.11)"/>
</clipPath>
</defs>
</svg>
