<svg width="84" height="27" viewBox="0 0 84 27" fill="none" xmlns="http://www.w3.org/2000/svg">
<path d="M13.5 0L25.1913 6.75V20.25L13.5 27L1.80866 20.25V6.75L13.5 0Z" fill="#2C3030"/>
<g clip-path="url(#clip0_2_117)">
<path d="M13.365 15.1231C14.3352 15.1231 15.1218 14.336 15.1218 13.365C15.1218 12.394 14.3352 11.6069 13.365 11.6069C12.3948 11.6069 11.6082 12.394 11.6082 13.365C11.6082 14.336 12.3948 15.1231 13.365 15.1231Z" fill="#61DAFB"/>
<path d="M13.365 16.967C18.5711 16.967 22.7915 15.3543 22.7915 13.365C22.7915 11.3757 18.5711 9.76297 13.365 9.76297C8.15889 9.76297 3.93849 11.3757 3.93849 13.365C3.93849 15.3543 8.15889 16.967 13.365 16.967Z" stroke="#61DAFB"/>
<path d="M10.248 15.166C12.8511 19.6782 16.3568 22.5297 18.0783 21.535C19.7998 20.5403 19.0851 16.0761 16.482 11.564C13.879 7.05184 10.3732 4.20035 8.65176 5.19503C6.93028 6.1897 7.64494 10.6539 10.248 15.166Z" stroke="#61DAFB"/>
<path d="M10.248 11.564C7.64493 16.0761 6.93027 20.5403 8.65175 21.535C10.3732 22.5297 13.879 19.6782 16.482 15.166C19.0851 10.6539 19.7997 6.18969 18.0783 5.19502C16.3568 4.20035 12.8511 7.05183 10.248 11.564Z" stroke="#61DAFB"/>
</g>
<path d="M35.932 13.052L34.546 10.388H34.492V20H32.548V7.436H34.816L38.92 14.384L40.306 17.048H40.36V7.436H42.304V20H40.036L35.932 13.052ZM48.9256 20.216C48.2536 20.216 47.6536 20.102 47.1256 19.874C46.5976 19.646 46.1476 19.322 45.7756 18.902C45.4036 18.47 45.1156 17.954 44.9116 17.354C44.7196 16.742 44.6236 16.064 44.6236 15.32C44.6236 14.576 44.7196 13.904 44.9116 13.304C45.1156 12.692 45.4036 12.176 45.7756 11.756C46.1476 11.324 46.5976 10.994 47.1256 10.766C47.6536 10.538 48.2536 10.424 48.9256 10.424C49.6096 10.424 50.2096 10.544 50.7256 10.784C51.2536 11.024 51.6916 11.36 52.0396 11.792C52.3876 12.212 52.6456 12.704 52.8136 13.268C52.9936 13.832 53.0836 14.438 53.0836 15.086V15.824H46.6576V16.13C46.6576 16.85 46.8676 17.444 47.2876 17.912C47.7196 18.368 48.3316 18.596 49.1236 18.596C49.6996 18.596 50.1856 18.47 50.5816 18.218C50.9776 17.966 51.3136 17.624 51.5896 17.192L52.7416 18.326C52.3936 18.902 51.8896 19.364 51.2296 19.712C50.5696 20.048 49.8016 20.216 48.9256 20.216ZM48.9256 11.954C48.5896 11.954 48.2776 12.014 47.9896 12.134C47.7136 12.254 47.4736 12.422 47.2696 12.638C47.0776 12.854 46.9276 13.112 46.8196 13.412C46.7116 13.712 46.6576 14.042 46.6576 14.402V14.528H51.0136V14.348C51.0136 13.628 50.8276 13.052 50.4556 12.62C50.0836 12.176 49.5736 11.954 48.9256 11.954ZM53.9655 20L57.2595 15.266L54.0555 10.64H56.3235L58.4295 13.898H58.4835L60.6435 10.64H62.7315L59.5275 15.248L62.7855 20H60.5175L58.3575 16.598H58.3035L56.0535 20H53.9655ZM64.5544 6.68H66.5164V12.188H66.6064C66.8104 11.624 67.1404 11.192 67.5964 10.892C68.0644 10.58 68.6104 10.424 69.2344 10.424C70.4224 10.424 71.3404 10.856 71.9884 11.72C72.6364 12.572 72.9604 13.772 72.9604 15.32C72.9604 16.868 72.6364 18.074 71.9884 18.938C71.3404 19.79 70.4224 20.216 69.2344 20.216C68.6104 20.216 68.0644 20.06 67.5964 19.748C67.1404 19.436 66.8104 19.004 66.6064 18.452H66.5164V20H64.5544V6.68ZM68.6404 18.524C69.3244 18.524 69.8704 18.308 70.2784 17.876C70.6864 17.432 70.8904 16.85 70.8904 16.13V14.51C70.8904 13.79 70.6864 13.214 70.2784 12.782C69.8704 12.338 69.3244 12.116 68.6404 12.116C68.0404 12.116 67.5364 12.266 67.1284 12.566C66.7204 12.854 66.5164 13.238 66.5164 13.718V16.922C66.5164 17.402 66.7204 17.792 67.1284 18.092C67.5364 18.38 68.0404 18.524 68.6404 18.524ZM78.8787 20.216C78.2307 20.216 77.6367 20.102 77.0967 19.874C76.5687 19.646 76.1187 19.322 75.7467 18.902C75.3747 18.47 75.0867 17.954 74.8827 17.354C74.6787 16.742 74.5767 16.064 74.5767 15.32C74.5767 14.576 74.6787 13.904 74.8827 13.304C75.0867 12.692 75.3747 12.176 75.7467 11.756C76.1187 11.324 76.5687 10.994 77.0967 10.766C77.6367 10.538 78.2307 10.424 78.8787 10.424C79.5267 10.424 80.1147 10.538 80.6427 10.766C81.1827 10.994 81.6387 11.324 82.0107 11.756C82.3827 12.176 82.6707 12.692 82.8747 13.304C83.0787 13.904 83.1807 14.576 83.1807 15.32C83.1807 16.064 83.0787 16.742 82.8747 17.354C82.6707 17.954 82.3827 18.47 82.0107 18.902C81.6387 19.322 81.1827 19.646 80.6427 19.874C80.1147 20.102 79.5267 20.216 78.8787 20.216ZM78.8787 18.596C79.5507 18.596 80.0907 18.392 80.4987 17.984C80.9067 17.564 81.1107 16.94 81.1107 16.112V14.528C81.1107 13.7 80.9067 13.082 80.4987 12.674C80.0907 12.254 79.5507 12.044 78.8787 12.044C78.2067 12.044 77.6667 12.254 77.2587 12.674C76.8507 13.082 76.6467 13.7 76.6467 14.528V16.112C76.6467 16.94 76.8507 17.564 77.2587 17.984C77.6667 18.392 78.2067 18.596 78.8787 18.596Z" fill="white"/>
<defs>
<clipPath id="clip0_2_117">
<rect width="19.71" height="17.55" fill="white" transform="translate(3.51001 4.59)"/>
</clipPath>
</defs>
</svg>
