<svg width="32" height="32" viewBox="0 0 32 32" fill="none" xmlns="http://www.w3.org/2000/svg">
<rect width="32" height="32" rx="5" fill="white"/>
<path d="M5.85026 14.7129L7.96895 13.5323C7.995 13.5178 8.02455 13.5101 8.05462 13.5101C8.08469 13.5101 8.11424 13.5178 8.14029 13.5323L10.259 14.7129C10.285 14.7275 10.3067 14.7483 10.3217 14.7735C10.3368 14.7986 10.3447 14.8272 10.3448 14.8562V17.218C10.3447 17.247 10.3368 17.2756 10.3217 17.3007C10.3067 17.3259 10.285 17.3467 10.259 17.3613L8.14029 18.5419C8.11424 18.5564 8.08469 18.5641 8.05462 18.5641C8.02455 18.5641 7.995 18.5564 7.96895 18.5419L5.85026 17.3613C5.8242 17.3467 5.80256 17.3259 5.78751 17.3007C5.77245 17.2756 5.7645 17.247 5.76447 17.218V14.8562C5.7645 14.8272 5.77245 14.7986 5.78751 14.7735C5.80256 14.7483 5.8242 14.7275 5.85026 14.7129" fill="#2C3030"/>
<path d="M13.5628 15.7886L11.0292 11.5368C10.9373 11.3828 10.7675 11.2696 10.5835 11.2696H5.52063C5.33696 11.2696 5.16683 11.383 5.07475 11.5368L2.54595 15.7793C2.50082 15.8557 2.47708 15.9421 2.47708 16.0301C2.47708 16.1181 2.50082 16.2045 2.54595 16.2809L5.07693 20.4982C5.16876 20.6522 5.33889 20.7306 5.5228 20.7306H10.5857C10.7694 20.7306 10.9395 20.6543 11.0314 20.5005L13.5628 16.2765C13.6546 16.1225 13.6546 15.9428 13.5628 15.7865V15.7886ZM11.4642 17.8312C11.4642 17.8937 11.4255 17.9516 11.369 17.9829L8.14464 19.7791C8.11687 19.7944 8.08542 19.8025 8.05342 19.8025C8.02141 19.8025 7.98996 19.7944 7.96219 19.7791L4.73521 17.9829C4.70711 17.9677 4.68356 17.9457 4.66687 17.9192C4.65018 17.8926 4.64092 17.8623 4.63999 17.8312V14.2407C4.63999 14.1781 4.67866 14.1203 4.73473 14.089L7.95904 12.2928C7.98679 12.2775 8.0182 12.2694 8.05015 12.2694C8.08211 12.2694 8.11351 12.2775 8.14126 12.2928L11.3709 14.0867C11.3991 14.1018 11.4227 14.1237 11.4395 14.1503C11.4563 14.1769 11.4656 14.2072 11.4666 14.2383L11.4642 17.8312Z" fill="#101111"/>
<path d="M14.9045 17.736V14.3863H16.9038V14.7437H15.3436V15.7937H16.6607V16.1563H15.3436V17.3697H16.9568V17.7323L14.9045 17.736ZM18.6562 17.7976C18.4145 17.7976 18.189 17.7533 17.9795 17.6646C17.7701 17.5759 17.5903 17.4551 17.4401 17.302L17.7045 17.0057C17.8279 17.1301 17.9725 17.2322 18.1383 17.312C18.3074 17.3867 18.482 17.424 18.662 17.424C18.8912 17.424 19.0685 17.3746 19.1936 17.2759C19.3206 17.1737 19.3841 17.0409 19.3841 16.8776C19.3841 16.7925 19.3682 16.7209 19.3365 16.6629C19.3083 16.6016 19.2678 16.5505 19.2149 16.5096C19.1656 16.4653 19.1057 16.4261 19.0351 16.3922C18.9645 16.358 18.8888 16.3222 18.8079 16.2849L18.3108 16.0756C18.2298 16.0414 18.1468 16.0005 18.0619 15.9531C17.9773 15.9055 17.9016 15.8476 17.8348 15.7795C17.7677 15.7114 17.7131 15.6313 17.6709 15.5392C17.6285 15.4438 17.6073 15.3349 17.6073 15.2125C17.6073 15.0881 17.6338 14.9714 17.6866 14.8625C17.743 14.7536 17.8187 14.66 17.9138 14.5816C18.0125 14.4999 18.1272 14.4377 18.2577 14.3949C18.3917 14.3506 18.5381 14.3284 18.6968 14.3284C18.9062 14.3284 19.0984 14.3675 19.2734 14.4458C19.4496 14.5204 19.5995 14.6192 19.7229 14.7421L19.4875 15.02C19.3817 14.9212 19.2636 14.8446 19.1332 14.7902C19.0063 14.7323 18.8617 14.7034 18.6994 14.7034C18.5055 14.7034 18.3485 14.7477 18.2287 14.8364C18.1123 14.9215 18.0542 15.0406 18.0542 15.1938C18.0542 15.2755 18.0701 15.3453 18.1018 15.4031C18.1372 15.4576 18.1832 15.507 18.2395 15.5513C18.2959 15.5922 18.3576 15.6295 18.4247 15.6633C18.4917 15.6939 18.5605 15.7229 18.631 15.7501L19.1228 15.9543C19.2216 15.9952 19.315 16.0429 19.4032 16.0973C19.4913 16.1483 19.567 16.2096 19.6303 16.2812C19.6938 16.3493 19.7432 16.431 19.7785 16.5262C19.8171 16.6195 19.8365 16.7268 19.8365 16.8482C19.8365 16.981 19.8083 17.1053 19.7519 17.221C19.699 17.3368 19.6215 17.4389 19.5192 17.5274C19.4169 17.6125 19.2934 17.6805 19.1489 17.7316C19.0044 17.7792 18.8405 17.803 18.6571 17.803L18.6562 17.7976ZM20.5139 17.736V14.3863H20.953V17.3736H22.4706V17.7362L20.5139 17.736ZM23.0441 17.736V15.2545H23.4779V17.736H23.0441ZM23.2665 14.7435C23.1819 14.7435 23.1096 14.718 23.0497 14.667C22.9933 14.6159 22.9651 14.5512 22.9651 14.4728C22.9651 14.3912 22.9933 14.3265 23.0497 14.2787C23.1096 14.2277 23.1819 14.2022 23.2665 14.2022C23.351 14.2022 23.4215 14.2277 23.4779 14.2787C23.5378 14.3263 23.5678 14.391 23.5678 14.4728C23.5678 14.5511 23.5378 14.6158 23.4779 14.667C23.4215 14.718 23.351 14.7435 23.2665 14.7435ZM24.3455 17.736V15.2545H24.7075L24.7445 15.612H24.7604C24.8838 15.4928 25.0126 15.394 25.1466 15.3156C25.2842 15.234 25.4429 15.1931 25.6227 15.1931C25.8942 15.1931 26.0915 15.2748 26.2148 15.4381C26.3417 15.6015 26.4052 15.8432 26.4052 16.1633V17.736H25.9714V16.2193C25.9714 15.986 25.9328 15.8175 25.8554 15.7137C25.7781 15.6082 25.6547 15.5555 25.4852 15.5555C25.3511 15.5555 25.2331 15.5879 25.1309 15.6526C25.0286 15.7173 24.9123 15.8126 24.7819 15.9386V17.7362L24.3455 17.736ZM28.0473 17.7976C27.9098 17.7976 27.7934 17.7771 27.6984 17.7362C27.6065 17.6953 27.5308 17.6392 27.4712 17.5678C27.4148 17.4962 27.3743 17.4094 27.3496 17.3074C27.325 17.2052 27.3127 17.0929 27.3127 16.9704V15.5938H26.9318V15.2771L27.3337 15.2538L27.3869 14.5592H27.7494V15.2538H28.4422V15.5959H27.7494V16.9725C27.7494 17.1258 27.7776 17.2449 27.834 17.33C27.8939 17.4117 27.9986 17.4525 28.1481 17.4525C28.194 17.4525 28.2434 17.4457 28.2963 17.432C28.3491 17.4183 28.3974 17.403 28.4413 17.386L28.5258 17.7026C28.4553 17.7264 28.3777 17.7469 28.2931 17.764C28.2121 17.7842 28.131 17.7943 28.0498 17.7943L28.0473 17.7976Z" fill="#4D4D4D"/>
</svg>
