<svg width="32" height="32" viewBox="0 0 32 32" fill="none" xmlns="http://www.w3.org/2000/svg">
<rect width="32" height="32" rx="5" fill="white"/>
<path d="M4.012 20V12.091H4.496V15.545C4.77467 15.2663 5.057 15.039 5.343 14.863C5.63633 14.6797 5.96267 14.588 6.322 14.588C6.86467 14.588 7.26433 14.7567 7.521 15.094C7.785 15.424 7.917 15.93 7.917 16.612V20H7.433V16.678C7.433 16.1133 7.33767 15.699 7.147 15.435C6.96367 15.1637 6.65567 15.028 6.223 15.028C5.90767 15.028 5.62167 15.1123 5.365 15.281C5.10833 15.4423 4.81867 15.688 4.496 16.018V20H4.012ZM11.3415 20.132C10.7989 20.132 10.3955 19.967 10.1315 19.637C9.87486 19.2997 9.74652 18.79 9.74652 18.108V14.72H10.2305V18.042C10.2305 18.5993 10.3222 19.0137 10.5055 19.285C10.6962 19.5563 11.0042 19.692 11.4295 19.692C11.7449 19.692 12.0309 19.6077 12.2875 19.439C12.5442 19.263 12.8265 18.988 13.1345 18.614V14.72H13.6185V20H13.2115L13.1565 19.12H13.1345C12.8779 19.4207 12.6065 19.6663 12.3205 19.857C12.0345 20.0403 11.7082 20.132 11.3415 20.132ZM16.9218 20.132C16.5331 20.132 16.1701 20.0623 15.8328 19.923C15.5028 19.7763 15.2205 19.604 14.9858 19.406L15.2718 19.043C15.4991 19.2263 15.7411 19.384 15.9978 19.516C16.2545 19.648 16.5735 19.714 16.9548 19.714C17.3655 19.714 17.6771 19.6113 17.8898 19.406C18.1025 19.1933 18.2088 18.9477 18.2088 18.669C18.2088 18.449 18.1428 18.2657 18.0108 18.119C17.8788 17.9723 17.7138 17.8513 17.5158 17.756C17.3251 17.6607 17.1271 17.5763 16.9218 17.503C16.6578 17.4077 16.3975 17.3013 16.1408 17.184C15.8915 17.0667 15.6861 16.9163 15.5248 16.733C15.3635 16.5423 15.2828 16.2967 15.2828 15.996C15.2828 15.6073 15.4258 15.2773 15.7118 15.006C16.0051 14.7273 16.4268 14.588 16.9768 14.588C17.2628 14.588 17.5378 14.6393 17.8018 14.742C18.0731 14.8447 18.3041 14.9767 18.4948 15.138L18.2308 15.479C18.0475 15.347 17.8568 15.237 17.6588 15.149C17.4608 15.0537 17.2298 15.006 16.9658 15.006C16.5551 15.006 16.2508 15.105 16.0528 15.303C15.8621 15.501 15.7668 15.721 15.7668 15.963C15.7668 16.161 15.8218 16.326 15.9318 16.458C16.0491 16.59 16.1995 16.7 16.3828 16.788C16.5735 16.8687 16.7715 16.9493 16.9768 17.03C17.2555 17.1327 17.5268 17.2427 17.7908 17.36C18.0548 17.4773 18.2711 17.635 18.4398 17.833C18.6158 18.031 18.7038 18.3023 18.7038 18.647C18.7038 18.911 18.6341 19.1567 18.4948 19.384C18.3555 19.604 18.1538 19.7837 17.8898 19.923C17.6258 20.0623 17.3031 20.132 16.9218 20.132ZM20.1038 20V12.091H20.5878V17.921H20.6098L23.2168 14.72H23.7778L22.0618 16.81L24.0638 20H23.5248L21.7758 17.173L20.5878 18.559V20H20.1038ZM24.9973 22.409C24.7993 22.409 24.6197 22.3723 24.4583 22.299L24.5683 21.87C24.627 21.892 24.693 21.9103 24.7663 21.925C24.847 21.947 24.924 21.958 24.9973 21.958C25.32 21.958 25.5913 21.826 25.8113 21.562C26.0387 21.298 26.2183 20.9643 26.3503 20.561L26.4933 20.099L24.3263 14.72H24.8543L26.1303 18.042C26.211 18.262 26.3027 18.504 26.4053 18.768C26.508 19.032 26.607 19.2813 26.7023 19.516H26.7463C26.827 19.2813 26.9077 19.032 26.9883 18.768C27.0763 18.504 27.157 18.262 27.2303 18.042L28.3633 14.72H28.8583L26.7683 20.66C26.673 20.9533 26.5447 21.232 26.3833 21.496C26.2293 21.7673 26.0387 21.9873 25.8113 22.156C25.584 22.3247 25.3127 22.409 24.9973 22.409Z" fill="#2C3030"/>
</svg>
