<svg width="32" height="32" viewBox="0 0 32 32" fill="none" xmlns="http://www.w3.org/2000/svg">
<rect width="32" height="32" rx="5" fill="white"/>
<g clip-path="url(#clip0_4_125)">
<path d="M9.85666 12.4737H15.3147V12.8962H10.357V16.076H15.019V16.4984H10.357V19.9895H15.3715V20.412H9.85666V12.4737ZM15.8036 12.4737H16.3835L18.9534 15.9648L21.58 12.4737L25.1527 8.03932L19.2831 16.3317L22.3078 20.412H21.7051L18.9534 16.6986L16.1902 20.412H15.599L18.6463 16.3317L15.8036 12.4737ZM22.5238 12.8962V12.4737H28.7437V12.8962H25.8782V20.412H25.3779V12.8962H22.5238Z" fill="black"/>
<path d="M3.02844 12.4737H3.65384L12.2777 25.0416L8.71388 20.412L3.5515 13.0741L3.52876 20.412H3.02844V12.4737Z" fill="black"/>
</g>
<defs>
<clipPath id="clip0_4_125">
<rect width="29" height="17" fill="white" transform="translate(3 8)"/>
</clipPath>
</defs>
</svg>
