<svg width="32" height="32" viewBox="0 0 32 32" fill="none" xmlns="http://www.w3.org/2000/svg">
<rect width="32" height="32" rx="5" fill="white"/>
<path d="M24.3383 9.80952H23.2148C22.999 9.80952 22.8242 9.98441 22.8242 10.2001V10.3713C22.8242 10.587 22.999 10.7619 23.2148 10.7619H24.3383C24.554 10.7619 24.7289 10.587 24.7289 10.3713V10.2001C24.7289 9.98441 24.554 9.80952 24.3383 9.80952Z" fill="#2C3030"/>
<path d="M13.8621 25.0476H8.92908C8.71334 25.0476 8.53845 25.2225 8.53845 25.4382V25.6094C8.53845 25.8251 8.71334 26 8.92908 26H13.8621C14.0778 26 14.2527 25.8251 14.2527 25.6094V25.4382C14.2527 25.2225 14.0778 25.0476 13.8621 25.0476Z" fill="#4D4D4D"/>
<path d="M23.3859 17.4286H20.3576C20.1419 17.4286 19.967 17.6035 19.967 17.8192V17.9903C19.967 18.2061 20.1419 18.381 20.3576 18.381H23.3859C23.6016 18.381 23.7765 18.2061 23.7765 17.9903V17.8192C23.7765 17.6035 23.6016 17.4286 23.3859 17.4286Z" fill="#101111"/>
<path d="M18.624 17.4286H14.6434C14.4276 17.4286 14.2527 17.6035 14.2527 17.8192V17.9903C14.2527 18.2061 14.4276 18.381 14.6434 18.381H18.624C18.8398 18.381 19.0147 18.2061 19.0147 17.9903V17.8192C19.0147 17.6035 18.8398 17.4286 18.624 17.4286Z" fill="#4D4D4D"/>
<path d="M12.9097 17.4286H8.92908C8.71334 17.4286 8.53845 17.6035 8.53845 17.8192V17.9903C8.53845 18.2061 8.71334 18.381 8.92908 18.381H12.9097C13.1255 18.381 13.3004 18.2061 13.3004 17.9903V17.8192C13.3004 17.6035 13.1255 17.4286 12.9097 17.4286Z" fill="#2C3030"/>
<path d="M13.8621 21.2381H8.92908C8.71334 21.2381 8.53845 21.413 8.53845 21.6287V21.7999C8.53845 22.0156 8.71334 22.1905 8.92908 22.1905H13.8621C14.0778 22.1905 14.2527 22.0156 14.2527 21.7999V21.6287C14.2527 21.413 14.0778 21.2381 13.8621 21.2381Z" fill="#101111"/>
<path d="M13.8621 13.619H8.92908C8.71334 13.619 8.53845 13.7939 8.53845 14.0097V14.1808C8.53845 14.3965 8.71334 14.5714 8.92908 14.5714H13.8621C14.0778 14.5714 14.2527 14.3965 14.2527 14.1808V14.0097C14.2527 13.7939 14.0778 13.619 13.8621 13.619Z" fill="#101111"/>
<path d="M23.3859 7.90476H13.691C13.4752 7.90476 13.3004 8.07965 13.3004 8.29539V8.46652C13.3004 8.68225 13.4752 8.85714 13.691 8.85714H23.3859C23.6017 8.85714 23.7765 8.68225 23.7765 8.46652V8.29539C23.7765 8.07965 23.6017 7.90476 23.3859 7.90476Z" fill="#4D4D4D"/>
<path d="M11.9574 7.90476H8.92908C8.71334 7.90476 8.53845 8.07965 8.53845 8.29539V8.46652C8.53845 8.68225 8.71334 8.85714 8.92908 8.85714H11.9574C12.1731 8.85714 12.348 8.68225 12.348 8.46652V8.29539C12.348 8.07965 12.1731 7.90476 11.9574 7.90476Z" fill="#4D4D4D"/>
<path d="M13.8621 23.1429H12.7386C12.5229 23.1429 12.348 23.3177 12.348 23.5335V23.7046C12.348 23.9203 12.5229 24.0952 12.7386 24.0952H13.8621C14.0778 24.0952 14.2527 23.9203 14.2527 23.7046V23.5335C14.2527 23.3177 14.0778 23.1429 13.8621 23.1429Z" fill="#4D4D4D"/>
<path d="M13.8621 11.7143H12.7386C12.5229 11.7143 12.348 11.8892 12.348 12.1049V12.276C12.348 12.4918 12.5229 12.6667 12.7386 12.6667H13.8621C14.0778 12.6667 14.2527 12.4918 14.2527 12.276V12.1049C14.2527 11.8892 14.0778 11.7143 13.8621 11.7143Z" fill="#2C3030"/>
<path d="M11.005 23.1429H8.92908C8.71334 23.1429 8.53845 23.3177 8.53845 23.5335V23.7046C8.53845 23.9203 8.71334 24.0952 8.92908 24.0952H11.005C11.2207 24.0952 11.3956 23.9203 11.3956 23.7046V23.5335C11.3956 23.3177 11.2207 23.1429 11.005 23.1429Z" fill="#2C3030"/>
<path d="M11.005 11.7143H8.92908C8.71334 11.7143 8.53845 11.8892 8.53845 12.1049V12.276C8.53845 12.4918 8.71334 12.6667 8.92908 12.6667H11.005C11.2207 12.6667 11.3956 12.4918 11.3956 12.276V12.1049C11.3956 11.8892 11.2207 11.7143 11.005 11.7143Z" fill="#4D4D4D"/>
<path d="M24.3383 15.5238H16.5481C16.3324 15.5238 16.1575 15.6987 16.1575 15.9144V16.0856C16.1575 16.3013 16.3324 16.4762 16.5481 16.4762H24.3383C24.554 16.4762 24.7289 16.3013 24.7289 16.0856V15.9144C24.7289 15.6987 24.554 15.5238 24.3383 15.5238Z" fill="#2C3030"/>
<path d="M14.8145 15.5238H11.7862C11.5705 15.5238 11.3956 15.6987 11.3956 15.9144V16.0856C11.3956 16.3013 11.5705 16.4762 11.7862 16.4762H14.8145C15.0302 16.4762 15.2051 16.3013 15.2051 16.0856V15.9144C15.2051 15.6987 15.0302 15.5238 14.8145 15.5238Z" fill="#4D4D4D"/>
<path d="M10.0526 15.5238H8.92908C8.71334 15.5238 8.53845 15.6987 8.53845 15.9144V16.0856C8.53845 16.3013 8.71334 16.4762 8.92908 16.4762H10.0526C10.2683 16.4762 10.4432 16.3013 10.4432 16.0856V15.9144C10.4432 15.6987 10.2683 15.5238 10.0526 15.5238Z" fill="#4D4D4D"/>
<path d="M21.4812 9.80952H17.5005C17.2848 9.80952 17.1099 9.98441 17.1099 10.2001V10.3713C17.1099 10.587 17.2848 10.7619 17.5005 10.7619H21.4812C21.6969 10.7619 21.8718 10.587 21.8718 10.3713V10.2001C21.8718 9.98441 21.6969 9.80952 21.4812 9.80952Z" fill="#101111"/>
<path d="M15.7669 9.80952H8.92908C8.71334 9.80952 8.53845 9.98441 8.53845 10.2001V10.3713C8.53845 10.587 8.71334 10.7619 8.92908 10.7619H15.7669C15.9826 10.7619 16.1575 10.587 16.1575 10.3713V10.2001C16.1575 9.98441 15.9826 9.80952 15.7669 9.80952Z" fill="#2C3030"/>
<path d="M20.5288 19.3333H11.7862C11.5705 19.3333 11.3956 19.5082 11.3956 19.724V19.8951C11.3956 20.1108 11.5705 20.2857 11.7862 20.2857H20.5288C20.7445 20.2857 20.9194 20.1108 20.9194 19.8951V19.724C20.9194 19.5082 20.7445 19.3333 20.5288 19.3333Z" fill="#4D4D4D"/>
<path d="M10.0526 19.3333H8.92908C8.71334 19.3333 8.53845 19.5082 8.53845 19.724V19.8951C8.53845 20.1108 8.71334 20.2857 8.92908 20.2857H10.0526C10.2683 20.2857 10.4432 20.1108 10.4432 19.8951V19.724C10.4432 19.5082 10.2683 19.3333 10.0526 19.3333Z" fill="#101111"/>
<path d="M25.2907 11.7143H20.3576C20.1419 11.7143 19.967 11.8892 19.967 12.1049V12.276C19.967 12.4918 20.1419 12.6667 20.3576 12.6667H25.2907C25.5064 12.6667 25.6813 12.4918 25.6813 12.276V12.1049C25.6813 11.8892 25.5064 11.7143 25.2907 11.7143Z" fill="#4D4D4D"/>
<path d="M25.2907 13.619H20.3576C20.1419 13.619 19.967 13.7939 19.967 14.0097V14.1808C19.967 14.3965 20.1419 14.5714 20.3576 14.5714H25.2907C25.5064 14.5714 25.6813 14.3965 25.6813 14.1808V14.0097C25.6813 13.7939 25.5064 13.619 25.2907 13.619Z" fill="#4D4D4D"/>
<path d="M20.5288 6H8.92908C8.71334 6 8.53845 6.17489 8.53845 6.39062V6.56176C8.53845 6.77749 8.71334 6.95238 8.92908 6.95238H20.5288C20.7445 6.95238 20.9194 6.77749 20.9194 6.56176V6.39062C20.9194 6.17489 20.7445 6 20.5288 6Z" fill="#2C3030"/>
</svg>
