<svg width="32" height="32" viewBox="0 0 32 32" fill="none" xmlns="http://www.w3.org/2000/svg">
<rect width="32" height="32" rx="5" fill="white"/>
<g clip-path="url(#clip0_4_128)">
<path d="M16.5 18.6037C17.6322 18.6037 18.55 17.6619 18.55 16.5C18.55 15.3381 17.6322 14.3963 16.5 14.3963C15.3678 14.3963 14.45 15.3381 14.45 16.5C14.45 17.6619 15.3678 18.6037 16.5 18.6037Z" fill="#2C3030"/>
<path d="M16.5 20.8101C22.5751 20.8101 27.5 18.8804 27.5 16.5C27.5 14.1196 22.5751 12.1899 16.5 12.1899C10.4249 12.1899 5.5 14.1196 5.5 16.5C5.5 18.8804 10.4249 20.8101 16.5 20.8101Z" stroke="#2C3030"/>
<path d="M12.8627 18.6551C15.9003 24.0542 19.9912 27.4662 22 26.276C24.0088 25.0858 23.1749 19.7441 20.1373 14.3449C17.0997 8.94578 13.0088 5.53375 11 6.72396C8.99116 7.91416 9.82512 13.2559 12.8627 18.6551Z" stroke="#2C3030"/>
<path d="M12.8627 14.3449C9.82512 19.7441 8.99116 25.0858 11 26.276C13.0088 27.4663 17.0997 24.0542 20.1373 18.6551C23.1749 13.2559 24.0088 7.91417 22 6.72396C19.9912 5.53376 15.9003 8.94579 12.8627 14.3449Z" stroke="#2C3030"/>
</g>
<defs>
<clipPath id="clip0_4_128">
<rect width="23" height="21" fill="white" transform="translate(5 6)"/>
</clipPath>
</defs>
</svg>
