<svg width="32" height="32" viewBox="0 0 32 32" fill="none" xmlns="http://www.w3.org/2000/svg">
<rect width="32" height="32" rx="5" fill="white"/>
<path d="M25.6562 4H6.34375C5.04933 4 4 5.04933 4 6.34375V25.6562C4 26.9507 5.04933 28 6.34375 28H25.6562C26.9507 28 28 26.9507 28 25.6562V6.34375C28 5.04933 26.9507 4 25.6562 4Z" fill="#101111"/>
<path fill-rule="evenodd" clip-rule="evenodd" d="M18.8594 23.0781V25.4219C19.2391 25.6187 19.7031 25.7641 20.2188 25.8625C20.7344 25.9609 21.2969 26.0078 21.8594 26.0078C22.4219 26.0078 22.9375 25.9562 23.4531 25.8484C23.9688 25.7406 24.3906 25.5625 24.7656 25.3328C25.1453 25.0844 25.4688 24.7703 25.6562 24.3484C25.8438 23.9266 25.9891 23.4578 25.9891 22.8484C25.9891 22.4219 25.9234 22.0516 25.7969 21.7234C25.6703 21.3953 25.4875 21.1141 25.2344 20.8797C24.9953 20.6312 24.7188 20.4109 24.3906 20.2234C24.0625 20.0359 23.6875 19.8391 23.2656 19.6609C22.9563 19.5344 22.7031 19.4125 22.4219 19.2906C22.1781 19.1687 21.9672 19.0469 21.8125 18.925C21.6391 18.7984 21.5078 18.6672 21.4141 18.5312C21.3203 18.3906 21.2734 18.2359 21.2734 18.0625C21.2734 17.9031 21.3152 17.7578 21.4 17.6266C21.4848 17.4953 21.6016 17.3875 21.7516 17.2937C21.9016 17.2 22.0891 17.1297 22.3141 17.0781C22.5344 17.0266 22.7781 17.0031 23.0641 17.0031C23.2609 17.0031 23.4672 17.0177 23.6734 17.0472C23.8891 17.0767 24.1094 17.1222 24.3297 17.1831C24.55 17.2441 24.7656 17.3191 24.9859 17.4128C25.1922 17.5066 25.3844 17.6144 25.5484 17.7362V15.5331C25.1922 15.3972 24.7984 15.2941 24.3766 15.2284C23.9547 15.1628 23.4859 15.13 22.9234 15.13C22.3609 15.13 21.8453 15.1909 21.3297 15.3081C20.8141 15.4253 20.3922 15.6128 20.0172 15.8706C19.6375 16.1237 19.3609 16.4331 19.1266 16.855C18.9063 17.2487 18.7984 17.6987 18.7984 18.2612C18.7984 18.9644 19 19.5737 19.4078 20.0425C19.8109 20.5581 20.4391 20.9331 21.2359 21.3081C21.5594 21.4394 21.8453 21.5706 22.1266 21.6972C22.4078 21.8237 22.6422 21.955 22.8297 22.0909C23.0313 22.2269 23.1906 22.3769 23.2984 22.5362C23.4156 22.6956 23.4766 22.8831 23.4766 23.0987C23.4766 23.2487 23.44 23.3894 23.3688 23.5206C23.2975 23.6519 23.1859 23.7644 23.0359 23.8581C22.8859 23.9519 22.7031 24.0269 22.4734 24.0831C22.2531 24.1347 22.0047 24.1628 21.6766 24.1628C21.1609 24.1628 20.6453 24.0737 20.1766 23.8956C19.6609 23.7175 19.1922 23.4503 18.7703 23.0987L18.8594 23.0781ZM14.9219 17.3125H17.9219V15.3906H9.53125V17.3125H12.5312V25.8906H14.9219V17.3125Z" fill="white"/>
</svg>
